<svg xmlns="http://www.w3.org/2000/svg" viewBox="0 0 512 512" role="img" aria-labelledby="title desc">
  <title id="title">SymDex icon</title>
  <desc id="desc">A search lens over code brackets and indexed nodes.</desc>
  <defs>
    <linearGradient id="bg" x1="80" y1="48" x2="432" y2="464" gradientUnits="userSpaceOnUse">
      <stop offset="0" stop-color="#101827"/>
      <stop offset="1" stop-color="#07111f"/>
    </linearGradient>
    <linearGradient id="lens" x1="168" y1="140" x2="348" y2="340" gradientUnits="userSpaceOnUse">
      <stop offset="0" stop-color="#22d3ee"/>
      <stop offset="1" stop-color="#38bdf8"/>
    </linearGradient>
  </defs>

  <rect width="512" height="512" rx="96" fill="url(#bg)"/>
  <path d="M96 144h320M96 256h320M96 368h320M144 96v320M256 96v320M368 96v320"
        fill="none" stroke="#1f2a3a" stroke-width="6" opacity=".5"/>

  <circle cx="256" cy="244" r="118" fill="#0f172a" stroke="url(#lens)" stroke-width="18"/>
  <path d="M338 326l74 74" fill="none" stroke="#22d3ee" stroke-width="30" stroke-linecap="round"/>
  <path d="M208 194l-52 50 52 50" fill="none" stroke="#f59e0b" stroke-width="28"
        stroke-linecap="round" stroke-linejoin="round"/>
  <path d="M304 194l52 50-52 50" fill="none" stroke="#34d399" stroke-width="28"
        stroke-linecap="round" stroke-linejoin="round"/>
  <path d="M274 176l-36 136" fill="none" stroke="#e5e7eb" stroke-width="22"
        stroke-linecap="round"/>

  <circle cx="132" cy="132" r="16" fill="#f59e0b"/>
  <circle cx="380" cy="132" r="16" fill="#34d399"/>
  <circle cx="132" cy="380" r="16" fill="#38bdf8"/>
  <circle cx="380" cy="380" r="16" fill="#f8fafc"/>
  <path d="M132 132l76 62M380 132l-76 62M132 380l76-86M380 380l-76-86"
        fill="none" stroke="#334155" stroke-width="10" stroke-linecap="round"/>
</svg>
